<svg width="100" height="100" viewBox="0 0 100 100" fill="none" xmlns="http://www.w3.org/2000/svg">
<path d="M50 0C77.6142 0 100 22.3858 100 50C100 77.6142 77.6142 100 50 100C22.3858 100 0 77.6142 0 50V0H50Z" fill="#333333"/>
<path d="M50 0C77.6142 0 100 22.3858 100 50C100 77.6142 77.6142 100 50 100C22.3858 100 0 77.6142 0 50V0H50Z" fill="#00846E"/>
<path d="M47.2236 13.8896C70.2355 13.8896 88.8906 32.8556 88.8906 56.251C88.8906 56.4826 88.8855 56.7136 88.8818 56.9443H88.8887V81.4238C79.7223 92.7536 65.7086 100 50 100C22.3858 100 0 77.6142 0 50V38H24V13.8896H47.2236Z" fill="#00C9A8"/>
<path d="M24.1104 38H0L24.1104 13.8887V38Z" fill="#00FFD4"/>
<rect x="36.1113" y="45.8335" width="27.7778" height="11.1111" fill="#333333"/>
<circle cx="63.8895" cy="51.3891" r="5.55556" fill="#333333"/>
<circle cx="36.1122" cy="51.3891" r="5.55556" fill="#333333"/>
<rect x="36.1113" y="65.2773" width="27.7778" height="11.1111" fill="#333333"/>
<circle cx="63.8895" cy="70.8329" r="5.55556" fill="#333333"/>
<circle cx="36.1122" cy="70.8329" r="5.55556" fill="#333333"/>
</svg>
