<svg width="394" height="100" viewBox="0 0 394 100" fill="none" xmlns="http://www.w3.org/2000/svg">
<path d="M369.932 88.6211V65.1574H375.16V71.4847L374.238 69.5514C375.058 68.0574 376.244 66.915 377.797 66.1241C379.379 65.3039 381.195 64.8938 383.245 64.8938C385.12 64.8938 386.79 65.26 388.254 65.9923C389.748 66.7246 390.92 67.8524 391.77 69.3756C392.619 70.8696 393.044 72.8029 393.044 75.1756V88.6211H387.551V75.8786C387.551 73.7988 387.053 72.2463 386.057 71.2211C385.091 70.1958 383.729 69.6832 381.971 69.6832C380.682 69.6832 379.54 69.9468 378.544 70.4741C377.548 71.0014 376.772 71.7923 376.215 72.8468C375.688 73.8721 375.424 75.1756 375.424 76.7574V88.6211H369.932Z" fill="#00846E"/>
<path d="M353.626 88.9286C351.019 88.9286 348.734 88.416 346.772 87.3908C344.838 86.3362 343.33 84.9009 342.246 83.0847C341.191 81.2685 340.664 79.2034 340.664 76.8893C340.664 74.5458 341.177 72.4807 342.202 70.6938C343.256 68.8776 344.692 67.4569 346.508 66.4317C348.353 65.4064 350.448 64.8938 352.791 64.8938C355.076 64.8938 357.112 65.3918 358.899 66.3877C360.686 67.3837 362.092 68.7898 363.117 70.6059C364.142 72.4221 364.655 74.5605 364.655 77.0211C364.655 77.2554 364.64 77.5191 364.611 77.812C364.611 78.1049 364.596 78.3832 364.567 78.6468H345.014V74.9999H361.667L359.514 76.1423C359.543 74.7948 359.265 73.6084 358.679 72.5832C358.093 71.5579 357.288 70.7524 356.263 70.1665C355.267 69.5807 354.11 69.2877 352.791 69.2877C351.444 69.2877 350.257 69.5807 349.232 70.1665C348.236 70.7524 347.445 71.5726 346.86 72.6271C346.303 73.6524 346.025 74.868 346.025 76.2741V77.1529C346.025 78.5589 346.347 79.8039 346.991 80.8877C347.636 81.9716 348.544 82.8064 349.716 83.3923C350.887 83.9781 352.235 84.2711 353.758 84.2711C355.076 84.2711 356.263 84.066 357.317 83.6559C358.372 83.2458 359.309 82.6014 360.129 81.7226L363.073 85.1059C362.019 86.3362 360.686 87.2882 359.075 87.962C357.493 88.6064 355.677 88.9286 353.626 88.9286Z" fill="#00846E"/>
<path d="M324.576 88.6211V65.1574H329.805V71.6165L329.19 69.7271C329.893 68.1453 330.991 66.9443 332.485 66.1241C334.008 65.3039 335.898 64.8938 338.153 64.8938V70.1226C337.919 70.064 337.699 70.0347 337.494 70.0347C337.289 70.0054 337.084 69.9908 336.879 69.9908C334.799 69.9908 333.144 70.6059 331.914 71.8362C330.684 73.0372 330.069 74.8387 330.069 77.2408V88.6211H324.576Z" fill="#00846E"/>
<path d="M308.271 88.9286C305.664 88.9286 303.379 88.416 301.416 87.3908C299.483 86.3362 297.974 84.9009 296.89 83.0847C295.836 81.2685 295.309 79.2034 295.309 76.8893C295.309 74.5458 295.821 72.4807 296.846 70.6938C297.901 68.8776 299.336 67.4569 301.153 66.4317C302.998 65.4064 305.092 64.8938 307.436 64.8938C309.721 64.8938 311.757 65.3918 313.543 66.3877C315.33 67.3837 316.736 68.7898 317.762 70.6059C318.787 72.4221 319.3 74.5605 319.3 77.0211C319.3 77.2554 319.285 77.5191 319.256 77.812C319.256 78.1049 319.241 78.3832 319.212 78.6468H299.659V74.9999H316.312L314.159 76.1423C314.188 74.7948 313.91 73.6084 313.324 72.5832C312.738 71.5579 311.932 70.7524 310.907 70.1665C309.911 69.5807 308.754 69.2877 307.436 69.2877C306.088 69.2877 304.902 69.5807 303.877 70.1665C302.881 70.7524 302.09 71.5726 301.504 72.6271C300.947 73.6524 300.669 74.868 300.669 76.2741V77.1529C300.669 78.5589 300.991 79.8039 301.636 80.8877C302.28 81.9716 303.188 82.8064 304.36 83.3923C305.532 83.9781 306.879 84.2711 308.403 84.2711C309.721 84.2711 310.907 84.066 311.962 83.6559C313.016 83.2458 313.954 82.6014 314.774 81.7226L317.718 85.1059C316.663 86.3362 315.33 87.2882 313.719 87.962C312.137 88.6064 310.321 88.9286 308.271 88.9286Z" fill="#00846E"/>
<path d="M284.54 88.6219V65.1583H290.032V88.6219H284.54ZM287.308 61.2916C286.283 61.2916 285.433 60.9694 284.76 60.3249C284.115 59.6805 283.793 58.9042 283.793 57.9961C283.793 57.0588 284.115 56.2825 284.76 55.6674C285.433 55.0229 286.283 54.7007 287.308 54.7007C288.333 54.7007 289.168 55.0083 289.813 55.6234C290.486 56.2093 290.823 56.9562 290.823 57.8643C290.823 58.831 290.501 59.6512 289.857 60.3249C289.212 60.9694 288.363 61.2916 287.308 61.2916Z" fill="#00846E"/>
<path d="M271.84 88.6221V56.019H277.332V88.6221H271.84Z" fill="#00846E"/>
<path d="M251.862 88.9284C249.87 88.9284 248.112 88.5623 246.589 87.83C245.066 87.0683 243.88 85.9259 243.03 84.4027C242.181 82.8502 241.756 80.9022 241.756 78.5587V65.1572H247.248V77.8118C247.248 79.9209 247.717 81.5027 248.654 82.5572C249.621 83.5825 250.983 84.0951 252.741 84.0951C254.03 84.0951 255.143 83.8315 256.08 83.3042C257.047 82.7769 257.794 81.986 258.321 80.9315C258.878 79.8769 259.156 78.5734 259.156 77.0209V65.1572H264.648V88.6209H259.419V82.2936L260.342 84.2269C259.551 85.7502 258.394 86.9219 256.871 87.7421C255.348 88.533 253.678 88.9284 251.862 88.9284Z" fill="#00846E"/>
<path d="M195.676 88.6211V65.1574H200.905V71.3968L199.982 69.5514C200.773 68.0281 201.915 66.8711 203.409 66.0802C204.932 65.2893 206.661 64.8938 208.594 64.8938C210.791 64.8938 212.695 65.4357 214.306 66.5196C215.946 67.6034 217.03 69.2438 217.558 71.4408L215.405 70.6938C216.166 68.9362 217.426 67.5302 219.183 66.4756C220.941 65.4211 222.977 64.8938 225.291 64.8938C227.166 64.8938 228.821 65.26 230.256 65.9923C231.721 66.7246 232.863 67.8524 233.683 69.3756C234.504 70.8696 234.914 72.8029 234.914 75.1756V88.6211H229.421V75.8786C229.421 73.7988 228.967 72.2463 228.059 71.2211C227.151 70.1958 225.847 69.6832 224.149 69.6832C222.947 69.6832 221.878 69.9468 220.941 70.4741C220.033 71.0014 219.315 71.7776 218.788 72.8029C218.29 73.8281 218.041 75.1317 218.041 76.7135V88.6211H212.549V75.8786C212.549 73.7988 212.094 72.2463 211.186 71.2211C210.278 70.1958 208.975 69.6832 207.276 69.6832C206.075 69.6832 205.006 69.9468 204.068 70.4741C203.16 71.0014 202.442 71.7776 201.915 72.8029C201.417 73.8281 201.168 75.1317 201.168 76.7135V88.6211H195.676Z" fill="#00846E"/>
<path d="M177.438 88.6211V65.1574H182.666V71.6165L182.051 69.7271C182.754 68.1453 183.853 66.9443 185.347 66.1241C186.87 65.3039 188.759 64.8938 191.015 64.8938V70.1226C190.78 70.064 190.561 70.0347 190.356 70.0347C190.151 70.0054 189.946 69.9908 189.741 69.9908C187.661 69.9908 186.006 70.6059 184.775 71.8362C183.545 73.0372 182.93 74.8387 182.93 77.2408V88.6211H177.438Z" fill="#00846E"/>
<path d="M159.662 88.9286C157.26 88.9286 155.122 88.416 153.247 87.3908C151.372 86.3362 149.893 84.9009 148.809 83.0847C147.726 81.2685 147.184 79.2034 147.184 76.8893C147.184 74.5458 147.726 72.4807 148.809 70.6938C149.893 68.8776 151.372 67.4569 153.247 66.4317C155.122 65.4064 157.26 64.8938 159.662 64.8938C162.094 64.8938 164.247 65.4064 166.121 66.4317C168.026 67.4569 169.505 68.863 170.559 70.6499C171.643 72.4367 172.185 74.5165 172.185 76.8893C172.185 79.2034 171.643 81.2685 170.559 83.0847C169.505 84.9009 168.026 86.3362 166.121 87.3908C164.247 88.416 162.094 88.9286 159.662 88.9286ZM159.662 84.2271C161.01 84.2271 162.211 83.9342 163.265 83.3483C164.32 82.7625 165.14 81.913 165.726 80.7999C166.341 79.6867 166.649 78.3832 166.649 76.8893C166.649 75.366 166.341 74.0625 165.726 72.9786C165.14 71.8655 164.32 71.016 163.265 70.4302C162.211 69.8443 161.025 69.5514 159.706 69.5514C158.359 69.5514 157.158 69.8443 156.103 70.4302C155.078 71.016 154.258 71.8655 153.643 72.9786C153.028 74.0625 152.72 75.366 152.72 76.8893C152.72 78.3832 153.028 79.6867 153.643 80.7999C154.258 81.913 155.078 82.7625 156.103 83.3483C157.158 83.9342 158.344 84.2271 159.662 84.2271Z" fill="#00846E"/>
<path d="M122.311 88.6216V57.864H144.764V62.6534H128.023V88.6216H122.311ZM127.539 76.8458V72.0125H142.874V76.8458H127.539Z" fill="#00846E"/>
<path d="M192.342 40.1373V22.4706H195.408V27.2373L194.908 25.9706C195.486 24.8151 196.375 23.9151 197.575 23.2706C198.775 22.6262 200.175 22.304 201.775 22.304C203.22 22.304 204.486 22.5817 205.575 23.1373C206.686 23.6928 207.553 24.5373 208.175 25.6706C208.797 26.804 209.108 28.2373 209.108 29.9706V40.1373H205.908V30.3373C205.908 28.6262 205.486 27.3373 204.642 26.4706C203.82 25.604 202.653 25.1706 201.142 25.1706C200.008 25.1706 199.02 25.3928 198.175 25.8373C197.331 26.2817 196.675 26.9373 196.208 27.804C195.764 28.6706 195.542 29.7484 195.542 31.0373V40.1373H192.342Z" fill="#333333"/>
<path d="M179.797 40.3373C177.908 40.3373 176.241 39.9484 174.797 39.1706C173.375 38.3928 172.264 37.3262 171.464 35.9706C170.686 34.6151 170.297 33.0595 170.297 31.304C170.297 29.5484 170.675 27.9928 171.43 26.6373C172.208 25.2817 173.264 24.2262 174.597 23.4706C175.952 22.6928 177.475 22.304 179.164 22.304C180.875 22.304 182.386 22.6817 183.697 23.4373C185.008 24.1928 186.03 25.2595 186.764 26.6373C187.519 27.9928 187.897 29.5817 187.897 31.404C187.897 31.5373 187.886 31.6928 187.864 31.8706C187.864 32.0484 187.852 32.2151 187.83 32.3706H172.797V30.0706H186.164L184.864 30.8706C184.886 29.7373 184.652 28.7262 184.164 27.8373C183.675 26.9484 182.997 26.2595 182.13 25.7706C181.286 25.2595 180.297 25.004 179.164 25.004C178.052 25.004 177.064 25.2595 176.197 25.7706C175.33 26.2595 174.652 26.9595 174.164 27.8706C173.675 28.7595 173.43 29.7817 173.43 30.9373V31.4706C173.43 32.6484 173.697 33.704 174.23 34.6373C174.786 35.5484 175.552 36.2595 176.53 36.7706C177.508 37.2817 178.63 37.5373 179.897 37.5373C180.941 37.5373 181.886 37.3595 182.73 37.004C183.597 36.6484 184.352 36.1151 184.997 35.404L186.764 37.4706C185.964 38.404 184.964 39.1151 183.764 39.604C182.586 40.0928 181.264 40.3373 179.797 40.3373Z" fill="#333333"/>
<path d="M158.576 40.3373C157.109 40.3373 155.765 40.004 154.542 39.3373C153.342 38.6484 152.376 37.6373 151.642 36.304C150.931 34.9706 150.576 33.304 150.576 31.304C150.576 29.304 150.92 27.6373 151.609 26.304C152.32 24.9706 153.276 23.9706 154.476 23.304C155.698 22.6373 157.065 22.304 158.576 22.304C160.309 22.304 161.842 22.6817 163.176 23.4373C164.509 24.1928 165.565 25.2484 166.342 26.604C167.12 27.9373 167.509 29.504 167.509 31.304C167.509 33.104 167.12 34.6817 166.342 36.0373C165.565 37.3928 164.509 38.4484 163.176 39.204C161.842 39.9595 160.309 40.3373 158.576 40.3373ZM149.209 46.604V22.4706H152.276V27.2373L152.076 31.3373L152.409 35.4373V46.604H149.209ZM158.309 37.5373C159.442 37.5373 160.453 37.2817 161.342 36.7706C162.253 36.2595 162.965 35.5373 163.476 34.604C164.009 33.6484 164.276 32.5484 164.276 31.304C164.276 30.0373 164.009 28.9484 163.476 28.0373C162.965 27.104 162.253 26.3817 161.342 25.8706C160.453 25.3595 159.442 25.104 158.309 25.104C157.198 25.104 156.187 25.3595 155.276 25.8706C154.387 26.3817 153.676 27.104 153.142 28.0373C152.631 28.9484 152.376 30.0373 152.376 31.304C152.376 32.5484 152.631 33.6484 153.142 34.604C153.676 35.5373 154.387 36.2595 155.276 36.7706C156.187 37.2817 157.198 37.5373 158.309 37.5373Z" fill="#333333"/>
<path d="M132.215 40.4028C130.437 40.4028 128.781 40.1028 127.248 39.5028C125.737 38.9028 124.426 38.0695 123.315 37.0028C122.203 35.9139 121.337 34.6472 120.715 33.2028C120.092 31.7584 119.781 30.1806 119.781 28.4695C119.781 26.7584 120.092 25.1806 120.715 23.7361C121.337 22.2917 122.203 21.0361 123.315 19.9695C124.426 18.8806 125.737 18.0361 127.248 17.4361C128.759 16.8361 130.415 16.5361 132.215 16.5361C133.992 16.5361 135.626 16.8361 137.115 17.4361C138.626 18.0139 139.937 18.8472 141.048 19.9361C142.181 21.0028 143.048 22.2584 143.648 23.7028C144.27 25.1472 144.581 26.7361 144.581 28.4695C144.581 30.2028 144.27 31.7917 143.648 33.2361C143.048 34.6806 142.181 35.9472 141.048 37.0361C139.937 38.1028 138.626 38.9361 137.115 39.5361C135.626 40.1139 133.992 40.4028 132.215 40.4028ZM132.215 37.4361C133.503 37.4361 134.692 37.2139 135.781 36.7695C136.892 36.325 137.848 35.7028 138.648 34.9028C139.47 34.0806 140.103 33.125 140.548 32.0361C141.015 30.9472 141.248 29.7584 141.248 28.4695C141.248 27.1806 141.015 25.9917 140.548 24.9028C140.103 23.8139 139.47 22.8695 138.648 22.0695C137.848 21.2472 136.892 20.6139 135.781 20.1695C134.692 19.725 133.503 19.5028 132.215 19.5028C130.903 19.5028 129.692 19.725 128.581 20.1695C127.492 20.6139 126.537 21.2472 125.715 22.0695C124.892 22.8695 124.248 23.8139 123.781 24.9028C123.337 25.9917 123.115 27.1806 123.115 28.4695C123.115 29.7584 123.337 30.9472 123.781 32.0361C124.248 33.125 124.892 34.0806 125.715 34.9028C126.537 35.7028 127.492 36.325 128.581 36.7695C129.692 37.2139 130.903 37.4361 132.215 37.4361Z" fill="#333333"/>
<path d="M50 0C77.6142 0 100 22.3858 100 50C100 77.6142 77.6142 100 50 100C22.3858 100 0 77.6142 0 50V0H50Z" fill="#333333"/>
<path d="M50 0C77.6142 0 100 22.3858 100 50C100 77.6142 77.6142 100 50 100C22.3858 100 0 77.6142 0 50V0H50Z" fill="#00846E"/>
<path d="M47.2236 13.8896C70.2355 13.8896 88.8906 32.8556 88.8906 56.251C88.8906 56.4826 88.8855 56.7136 88.8818 56.9443H88.8887V81.4238C79.7223 92.7536 65.7086 100 50 100C22.3858 100 0 77.6142 0 50V38H24V13.8896H47.2236Z" fill="#00C9A8"/>
<path d="M24.1104 38H0L24.1104 13.8887V38Z" fill="#00FFD4"/>
<rect x="36.1113" y="45.8335" width="27.7778" height="11.1111" fill="#333333"/>
<circle cx="63.8895" cy="51.3891" r="5.55556" fill="#333333"/>
<circle cx="36.1122" cy="51.3891" r="5.55556" fill="#333333"/>
<rect x="36.1113" y="65.2773" width="27.7778" height="11.1111" fill="#333333"/>
<circle cx="63.8895" cy="70.8329" r="5.55556" fill="#333333"/>
<circle cx="36.1122" cy="70.8329" r="5.55556" fill="#333333"/>
</svg>
