<?xml version="1.0" standalone="no"?>
<!DOCTYPE svg PUBLIC "-//W3C//DTD SVG 1.1//EN" "http://www.w3.org/Graphics/SVG/1.1/DTD/svg11.dtd">
<!--Generator: Xara Designer (www.xara.com), SVG filter version: 6.1.0.6-->
<svg stroke-width="0.501" stroke-linejoin="bevel" fill-rule="evenodd" xmlns:xlink="http://www.w3.org/1999/xlink" xmlns="http://www.w3.org/2000/svg" version="1.1" overflow="visible" width="384pt" height="384pt" viewBox="0 0 384 384">
 <defs>
	</defs>
 <g id="Document" fill="none" stroke="black" font-family="Times New Roman" font-size="16" transform="scale(1 -1)">
  <g id="Spread" transform="translate(0 -384)">
   <g id="Layer 1">
    <path d="M 62.926,321.078 C 134.172,392.323 249.832,392.323 321.078,321.078 C 392.323,249.832 392.323,134.172 321.078,62.926 C 249.832,-8.319 134.172,-8.319 62.926,62.926 C -8.319,134.172 -8.319,249.832 62.926,321.078 Z" fill="#ffffff" stroke-width="17.479" stroke="#178be9" stroke-linejoin="round" stroke-linecap="round" marker-start="none" marker-end="none" stroke-miterlimit="79.8403193612775"/>
    <path d="M 85.016,85.016 C 68.075,101.954 55.992,121.918 48.772,143.179 L 67.542,143.179 C 74.056,126.525 84.038,110.923 97.483,97.483 C 149.652,45.313 234.35,45.313 286.519,97.483 C 299.958,110.923 309.94,126.525 316.454,143.179 L 335.224,143.179 C 328.004,121.918 315.921,101.954 298.985,85.016 C 239.93,25.958 144.071,25.958 85.016,85.016 Z" stroke-width="2.185" stroke="none" fill="#178be9" fill-rule="evenodd" marker-start="none" marker-end="none" stroke-miterlimit="79.8403193612775"/>
    <path d="M 113.881,113.881 C 105.078,122.674 98.073,132.596 92.864,143.179 L 112.827,143.179 C 116.544,137.153 121.013,131.463 126.243,126.24 C 162.537,89.945 221.465,89.945 257.759,126.24 C 262.983,131.463 267.453,137.153 271.17,143.179 L 291.132,143.179 C 285.923,132.596 278.919,122.674 270.121,113.881 C 227,70.756 157.001,70.756 113.881,113.881 Z" stroke-width="2.185" stroke="none" fill="#178be9" fill-rule="evenodd" marker-start="none" marker-end="none" stroke-miterlimit="79.8403193612775"/>
    <g id="Group" fill-rule="nonzero" stroke-linejoin="round" stroke-linecap="round" stroke="none" stroke-width="1.088" fill="#000000" stroke-miterlimit="79.8403193612775">
     <g id="Group_1">
      <path d="M 60.032,239.512 C 60.032,235.669 59.046,232.67 57.075,230.516 C 55.104,228.36 52.361,227.283 48.844,227.283 C 46.647,227.283 44.704,227.779 43.017,228.771 C 41.33,229.764 40.032,231.189 39.125,233.046 C 38.217,234.903 37.764,237.059 37.764,239.512 C 37.764,243.326 38.742,246.304 40.699,248.444 C 42.655,250.586 45.413,251.656 48.972,251.656 C 52.375,251.656 55.069,250.561 57.054,248.37 C 59.039,246.179 60.032,243.227 60.032,239.512 Z M 42.911,239.512 C 42.911,234.081 44.917,231.366 48.929,231.366 C 52.9,231.366 54.885,234.081 54.885,239.512 C 54.885,244.886 52.885,247.573 48.887,247.573 C 46.788,247.573 45.268,246.878 44.325,245.488 C 43.382,244.099 42.911,242.107 42.911,239.512 Z" marker-start="none" marker-end="none"/>
      <path d="M 77.705,227.283 C 74.727,227.283 72.416,228.353 70.771,230.494 L 70.474,230.494 C 70.672,228.509 70.771,227.304 70.771,226.879 L 70.771,217.244 L 65.773,217.244 L 65.773,251.231 L 69.814,251.231 C 69.927,250.791 70.161,249.742 70.516,248.083 L 70.771,248.083 C 72.331,250.466 74.67,251.656 77.79,251.656 C 80.725,251.656 83.011,250.593 84.649,248.466 C 86.286,246.339 87.105,243.354 87.105,239.512 C 87.105,235.669 86.272,232.67 84.606,230.516 C 82.941,228.36 80.64,227.283 77.705,227.283 Z M 76.492,247.573 C 74.508,247.573 73.058,246.991 72.143,245.828 C 71.229,244.666 70.771,242.808 70.771,240.256 L 70.771,239.512 C 70.771,236.648 71.225,234.574 72.132,233.291 C 73.04,232.007 74.521,231.366 76.578,231.366 C 78.307,231.366 79.64,232.075 80.576,233.493 C 81.512,234.911 81.979,236.931 81.979,239.554 C 81.979,242.191 81.515,244.187 80.587,245.542 C 79.658,246.896 78.293,247.573 76.492,247.573 Z" marker-start="none" marker-end="none"/>
      <path d="M 103.184,227.283 C 99.526,227.283 96.665,228.349 94.602,230.484 C 92.539,232.617 91.508,235.556 91.508,239.299 C 91.508,243.142 92.465,246.162 94.379,248.36 C 96.293,250.557 98.923,251.656 102.269,251.656 C 105.375,251.656 107.828,250.714 109.628,248.827 C 111.429,246.942 112.329,244.347 112.329,241.043 L 112.329,238.342 L 96.655,238.342 C 96.725,236.059 97.342,234.304 98.505,233.078 C 99.667,231.852 101.305,231.239 103.417,231.239 C 104.808,231.239 106.101,231.37 107.299,231.632 C 108.497,231.894 109.784,232.33 111.159,232.94 L 111.159,228.878 C 109.94,228.297 108.706,227.885 107.459,227.644 C 106.211,227.403 104.786,227.283 103.184,227.283 Z M 102.269,247.87 C 100.681,247.87 99.408,247.367 98.451,246.36 C 97.494,245.354 96.924,243.887 96.739,241.958 L 107.416,241.958 C 107.388,243.9 106.92,245.371 106.013,246.371 C 105.105,247.371 103.857,247.87 102.269,247.87 Z" marker-start="none" marker-end="none"/>
      <path d="M 138.701,227.708 L 133.682,227.708 L 133.682,242.17 C 133.682,243.986 133.317,245.34 132.587,246.233 C 131.857,247.126 130.697,247.573 129.109,247.573 C 126.997,247.573 125.451,246.949 124.473,245.701 C 123.494,244.453 123.005,242.362 123.005,239.427 L 123.005,227.708 L 118.007,227.708 L 118.007,251.231 L 121.921,251.231 L 122.622,248.147 L 122.878,248.147 C 123.587,249.267 124.593,250.132 125.898,250.741 C 127.202,251.351 128.648,251.656 130.236,251.656 C 135.88,251.656 138.701,248.785 138.701,243.043 L 138.701,227.708 Z" marker-start="none" marker-end="none"/>
     </g>
    </g>
    <g id="Group_2" fill-rule="nonzero" stroke-linejoin="round" stroke-linecap="round" stroke="none" stroke-width="1.199" fill="#000000" stroke-miterlimit="79.8403193612775">
     <g id="Group_3">
      <path d="M 40.426,167.692 L 38.037,167.692 L 38.037,201.933 L 56.798,201.933 L 56.798,199.732 L 40.426,199.732 L 40.426,185.211 L 55.884,185.211 L 55.884,182.986 L 40.426,182.986 L 40.426,167.692 Z" marker-start="none" marker-end="none"/>
      <path d="M 90.899,184.86 C 90.899,179.426 89.54,175.128 86.824,171.966 C 84.107,168.804 80.359,167.224 75.581,167.224 C 70.819,167.224 67.08,168.804 64.363,171.966 C 61.646,175.128 60.288,179.441 60.288,184.906 C 60.288,190.355 61.657,194.646 64.398,197.776 C 67.138,200.907 70.882,202.472 75.629,202.472 C 80.407,202.472 84.146,200.899 86.847,197.753 C 89.548,194.606 90.899,190.309 90.899,184.86 Z M 62.888,184.86 C 62.888,179.957 63.98,176.166 66.166,173.489 C 68.353,170.81 71.491,169.472 75.581,169.472 C 79.704,169.472 82.854,170.799 85.032,173.453 C 87.211,176.108 88.299,179.91 88.299,184.86 C 88.299,189.794 87.211,193.576 85.032,196.207 C 82.854,198.838 79.72,200.153 75.629,200.154 C 71.554,200.153 68.411,198.826 66.201,196.172 C 63.992,193.518 62.888,189.747 62.888,184.86 Z" marker-start="none" marker-end="none"/>
      <path d="M 101.157,182.611 L 101.157,167.692 L 98.768,167.692 L 98.768,201.933 L 106.919,201.933 C 111.166,201.934 114.305,201.149 116.335,199.58 C 118.364,198.011 119.379,195.649 119.379,192.494 C 119.379,190.199 118.774,188.263 117.564,186.687 C 116.354,185.11 114.515,183.978 112.048,183.29 L 121.346,167.692 L 118.489,167.692 L 109.659,182.611 L 101.157,182.611 Z M 101.157,184.672 L 107.692,184.672 C 110.581,184.672 112.821,185.316 114.414,186.605 C 116.006,187.892 116.802,189.793 116.803,192.307 C 116.802,194.915 116.021,196.812 114.461,197.999 C 112.899,199.185 110.354,199.779 106.825,199.779 L 101.157,199.779 L 101.157,184.672 Z" marker-start="none" marker-end="none"/>
      <path d="M 142.331,167.692 L 129.567,199.31 L 129.379,199.31 C 129.504,197.374 129.566,195.391 129.567,193.361 L 129.567,167.692 L 127.271,167.692 L 127.271,201.933 L 130.972,201.933 L 143.104,171.814 L 143.245,171.814 L 155.377,201.933 L 158.984,201.933 L 158.984,167.692 L 156.571,167.692 L 156.571,193.642 C 156.571,195.454 156.665,197.328 156.852,199.264 L 156.665,199.264 L 143.854,167.692 L 142.331,167.692 Z" marker-start="none" marker-end="none"/>
      <path d="M 193.834,201.933 L 193.834,179.777 C 193.834,175.843 192.695,172.767 190.415,170.549 C 188.135,168.332 184.957,167.224 180.882,167.224 C 176.916,167.224 173.821,168.336 171.596,170.561 C 169.37,172.786 168.259,175.889 168.259,179.871 L 168.259,201.933 L 170.671,201.933 L 170.671,179.777 C 170.671,176.482 171.584,173.918 173.411,172.083 C 175.238,170.249 177.822,169.331 181.163,169.331 C 184.427,169.331 186.956,170.233 188.751,172.036 C 190.547,173.84 191.445,176.343 191.445,179.543 L 191.445,201.933 L 193.834,201.933 Z" marker-start="none" marker-end="none"/>
      <path d="M 203.155,167.692 L 203.155,201.933 L 205.544,201.933 L 205.544,169.94 L 221.869,169.94 L 221.869,167.692 L 203.155,167.692 Z" marker-start="none" marker-end="none"/>
      <path d="M 227.77,167.692 L 227.77,201.933 L 230.159,201.933 L 230.159,167.692 L 227.77,167.692 Z" marker-start="none" marker-end="none"/>
      <path d="M 258.569,167.692 L 239.855,167.692 L 239.855,201.933 L 258.569,201.933 L 258.569,199.732 L 242.244,199.732 L 242.244,186.78 L 257.655,186.78 L 257.655,184.579 L 242.244,184.579 L 242.244,169.894 L 258.569,169.894 L 258.569,167.692 Z" marker-start="none" marker-end="none"/>
      <path d="M 268.71,182.611 L 268.71,167.692 L 266.321,167.692 L 266.321,201.933 L 274.472,201.933 C 278.719,201.934 281.858,201.149 283.888,199.58 C 285.917,198.011 286.932,195.649 286.932,192.494 C 286.932,190.199 286.327,188.263 285.117,186.687 C 283.907,185.11 282.068,183.978 279.601,183.29 L 288.899,167.692 L 286.042,167.692 L 277.212,182.611 L 268.71,182.611 Z M 268.71,184.672 L 275.245,184.672 C 278.134,184.672 280.374,185.316 281.967,186.605 C 283.559,187.892 284.355,189.793 284.356,192.307 C 284.355,194.915 283.574,196.812 282.014,197.999 C 280.452,199.185 277.907,199.779 274.378,199.779 L 268.71,199.779 L 268.71,184.672 Z" marker-start="none" marker-end="none"/>
      <path d="M 313.538,167.692 L 294.824,167.692 L 294.824,201.933 L 313.538,201.933 L 313.538,199.732 L 297.213,199.732 L 297.213,186.78 L 312.624,186.78 L 312.624,184.579 L 297.213,184.579 L 297.213,169.894 L 313.538,169.894 L 313.538,167.692 Z" marker-start="none" marker-end="none"/>
      <path d="M 346.187,167.692 L 343.774,167.692 L 323.492,198.093 L 323.305,198.093 C 323.492,194.47 323.585,191.737 323.586,189.895 L 323.586,167.692 L 321.29,167.692 L 321.29,201.933 L 323.679,201.933 L 343.938,171.58 L 344.079,171.58 C 343.938,174.39 343.868,177.06 343.868,179.59 L 343.868,201.933 L 346.187,201.933 L 346.187,167.692 Z" marker-start="none" marker-end="none"/>
     </g>
    </g>
   </g>
  </g>
 </g>
</svg>
