<?xml version="1.0" standalone="no"?>
<!DOCTYPE svg PUBLIC "-//W3C//DTD SVG 1.1//EN" "http://www.w3.org/Graphics/SVG/1.1/DTD/svg11.dtd">
<!--Generator: Xara Designer (www.xara.com), SVG filter version: 6.1.0.6-->
<svg stroke-width="0.501" stroke-linejoin="bevel" fill-rule="evenodd" xmlns:xlink="http://www.w3.org/1999/xlink" xmlns="http://www.w3.org/2000/svg" version="1.1" overflow="visible" width="768pt" height="768pt" viewBox="0 0 768 768">
 <defs>
	</defs>
 <g id="Document" fill="none" stroke="black" font-family="Times New Roman" font-size="16" transform="scale(1 -1)">
  <g id="Spread" transform="translate(0 -768)">
   <g id="Layer 1">
    <path d="M 0.75,770.81 L 0.75,2.805 L 768.75,2.805 L 768.75,770.81 L 0.75,770.81 Z" stroke-linecap="round" stroke="none" stroke-width="2.031" stroke-linejoin="miter" marker-start="none" marker-end="none" stroke-miterlimit="79.8403193612775"/>
    <g id="Group">
     <path d="M 123.775,575.431 C 227.888,679.547 396.913,679.547 501.026,575.431 C 605.141,471.319 605.141,302.293 501.026,198.181 C 396.913,94.065 227.888,94.065 123.775,198.181 C 19.66,302.293 19.66,471.319 123.775,575.431 Z" stroke-width="87.329" stroke="#ffffff" fill="#ffffff" stroke-linejoin="round" stroke-linecap="round" marker-start="none" marker-end="none"/>
     <path d="M 123.775,574.655 C 227.888,678.768 396.913,678.768 501.026,574.655 C 605.141,470.54 605.141,301.514 501.026,197.405 C 396.913,93.289 227.888,93.289 123.775,197.405 C 19.66,301.514 19.66,470.54 123.775,574.655 Z" stroke="#04a4bb" fill="#ffffff" stroke-width="25.541" stroke-linejoin="round" stroke-linecap="round" marker-start="none" marker-end="none" stroke-miterlimit="79.8403193612775"/>
     <path d="M 156.067,229.684 C 131.308,254.437 113.659,283.609 103.102,314.682 L 130.529,314.682 C 140.05,290.342 154.636,267.548 174.287,247.907 C 250.521,171.667 374.295,171.667 450.532,247.907 C 470.18,267.548 484.766,290.342 494.276,314.682 L 521.705,314.682 C 511.16,283.609 493.5,254.437 468.749,229.684 C 382.449,143.378 242.367,143.378 156.067,229.684 Z" fill="#36b7c9" stroke="none" stroke-width="3.191" marker-start="none" marker-end="none" stroke-miterlimit="79.8403193612775"/>
     <path d="M 198.249,271.866 C 185.385,284.716 175.149,299.215 167.536,314.682 L 196.708,314.682 C 202.141,305.871 208.669,297.556 216.311,289.929 C 269.35,236.883 355.466,236.883 408.502,289.929 C 416.141,297.556 422.675,305.871 428.105,314.682 L 457.268,314.682 C 449.658,299.215 439.423,284.716 426.567,271.866 C 363.554,208.847 261.262,208.847 198.249,271.866 Z" fill="#68c8d6" stroke="none" stroke-width="3.191" marker-start="none" marker-end="none" stroke-miterlimit="79.8403193612775"/>
     <g id="Group_1" fill-rule="nonzero" stroke-linejoin="round" stroke-linecap="round" stroke="none" stroke-width="0.91" fill="#000000" stroke-miterlimit="79.8403193612775">
      <g id="Group_2">
       <path d="M 112.953,474.563 C 112.953,470.368 113.641,467.196 115.019,465.047 C 116.396,462.899 118.639,461.825 121.748,461.825 C 124.831,461.825 127.049,462.892 128.402,465.029 C 129.754,467.164 130.43,470.342 130.43,474.563 C 130.43,478.758 129.747,481.905 128.383,484.003 C 127.018,486.101 124.782,487.15 121.673,487.15 C 118.59,487.15 116.365,486.107 115,484.022 C 113.635,481.937 112.953,478.784 112.953,474.563 Z M 142.258,474.563 C 142.258,467.663 140.439,462.267 136.799,458.375 C 133.16,454.482 128.093,452.537 121.597,452.537 C 117.529,452.537 113.939,453.428 110.83,455.209 C 107.721,456.992 105.333,459.551 103.665,462.887 C 101.997,466.222 101.162,470.114 101.162,474.563 C 101.162,481.488 102.97,486.871 106.584,490.713 C 110.198,494.554 115.278,496.476 121.825,496.476 C 125.893,496.476 129.482,495.59 132.591,493.822 C 135.7,492.052 138.088,489.513 139.756,486.202 C 141.425,482.89 142.258,479.011 142.258,474.563 Z" marker-start="none" marker-end="none"/>
       <path d="M 175.089,452.537 C 170.109,452.537 166.205,454.343 163.375,457.958 L 162.768,457.958 C 163.172,454.42 163.374,452.373 163.375,451.817 L 163.375,434.643 L 151.812,434.643 L 151.812,495.68 L 161.214,495.68 L 162.843,490.182 L 163.375,490.182 C 166.078,494.377 170.084,496.476 175.392,496.476 C 180.397,496.476 184.314,494.542 187.145,490.675 C 189.976,486.808 191.391,481.437 191.391,474.563 C 191.391,470.039 190.727,466.109 189.4,462.773 C 188.074,459.437 186.184,456.897 183.733,455.153 C 181.281,453.408 178.4,452.537 175.089,452.537 Z M 171.677,487.225 C 168.822,487.225 166.736,486.348 165.422,484.59 C 164.107,482.834 163.425,479.934 163.375,475.89 L 163.375,474.639 C 163.374,470.09 164.05,466.829 165.403,464.858 C 166.755,462.886 168.897,461.9 171.829,461.9 C 177.011,461.9 179.601,466.172 179.601,474.714 C 179.601,478.884 178.963,482.012 177.686,484.097 C 176.41,486.183 174.408,487.225 171.677,487.225 Z" marker-start="none" marker-end="none"/>
       <path d="M 218.497,488.249 C 216.046,488.249 214.125,487.471 212.735,485.917 C 211.345,484.364 210.549,482.158 210.347,479.302 L 226.573,479.302 C 226.522,482.158 225.776,484.364 224.335,485.917 C 222.895,487.471 220.949,488.249 218.497,488.249 Z M 220.128,452.537 C 213.304,452.537 207.97,454.42 204.129,458.185 C 200.287,461.952 198.366,467.285 198.366,474.184 C 198.366,481.286 200.142,486.777 203.693,490.656 C 207.244,494.536 212.153,496.476 218.422,496.476 C 224.411,496.476 229.075,494.77 232.411,491.358 C 235.748,487.946 237.415,483.232 237.415,477.217 L 237.415,471.606 L 210.082,471.606 C 210.208,468.32 211.182,465.754 213.001,463.91 C 214.821,462.065 217.373,461.143 220.658,461.142 C 223.212,461.143 225.625,461.409 227.899,461.939 C 230.174,462.47 232.549,463.316 235.026,464.479 L 235.026,455.532 C 233.004,454.52 230.843,453.768 228.544,453.276 C 226.244,452.783 223.439,452.537 220.128,452.537 Z" marker-start="none" marker-end="none"/>
       <path d="M 285.941,453.295 L 274.378,453.295 L 274.378,478.051 C 274.378,481.109 273.835,483.403 272.748,484.932 C 271.661,486.461 269.929,487.225 267.554,487.225 C 264.318,487.225 261.981,486.145 260.541,483.984 C 259.099,481.823 258.379,478.241 258.38,473.236 L 258.38,453.295 L 246.817,453.295 L 246.817,495.68 L 255.65,495.68 L 257.205,490.258 L 257.848,490.258 C 259.138,492.306 260.914,493.853 263.175,494.902 C 265.438,495.95 268.009,496.476 270.89,496.476 C 275.818,496.476 279.559,495.142 282.111,492.476 C 284.665,489.809 285.942,485.962 285.941,480.932 L 285.941,453.295 Z" marker-start="none" marker-end="none"/>
      </g>
     </g>
     <path d="M 503.765,439.432 L 503.765,315.711 L 767.47,315.711 L 767.47,439.432 L 503.765,439.432 Z" fill="#ffffff" stroke="none" stroke-linecap="round" stroke-width="2.23" stroke-linejoin="miter" marker-start="none" marker-end="none" stroke-miterlimit="79.8403193612775"/>
     <g id="Group_3" fill-rule="nonzero" stroke-linejoin="round" stroke-linecap="round" stroke="none" stroke-width="0.853" fill="#000000" stroke-miterlimit="79.8403193612775">
      <g id="Group_4">
       <path d="M 109.441,342.617 L 104.549,342.617 L 104.549,412.738 L 142.968,412.738 L 142.968,408.23 L 109.441,408.23 L 109.441,378.493 L 141.096,378.493 L 141.096,373.937 L 109.441,373.937 L 109.441,342.617 Z" marker-start="none" marker-end="none"/>
       <path d="M 212.801,377.774 C 212.801,366.646 210.019,357.845 204.456,351.37 C 198.892,344.895 191.218,341.658 181.434,341.658 C 171.682,341.658 164.024,344.895 158.459,351.37 C 152.896,357.845 150.114,366.677 150.114,377.87 C 150.114,389.028 152.919,397.814 158.532,404.225 C 164.143,410.637 171.81,413.842 181.531,413.842 C 191.315,413.842 198.973,410.62 204.504,404.177 C 210.036,397.734 212.801,388.933 212.801,377.774 Z M 155.439,377.774 C 155.439,367.733 157.676,359.97 162.152,354.487 C 166.63,349.003 173.057,346.262 181.434,346.262 C 189.876,346.262 196.328,348.98 200.787,354.415 C 205.248,359.852 207.478,367.638 207.478,377.774 C 207.478,387.878 205.248,395.624 200.787,401.012 C 196.328,406.399 189.909,409.092 181.531,409.094 C 173.185,409.092 166.75,406.375 162.225,400.94 C 157.701,395.504 155.439,387.783 155.439,377.774 Z" marker-start="none" marker-end="none"/>
       <path d="M 233.81,373.17 L 233.81,342.617 L 228.918,342.617 L 228.918,412.738 L 245.61,412.738 C 254.307,412.739 260.734,411.132 264.891,407.918 C 269.048,404.705 271.126,399.869 271.126,393.409 C 271.126,388.709 269.887,384.744 267.408,381.515 C 264.931,378.286 261.165,375.968 256.113,374.56 L 275.155,342.617 L 269.303,342.617 L 251.221,373.17 L 233.81,373.17 Z M 233.81,377.389 L 247.192,377.389 C 253.108,377.389 257.696,378.709 260.958,381.347 C 264.219,383.984 265.849,387.877 265.85,393.025 C 265.849,398.365 264.25,402.251 261.053,404.68 C 257.856,407.11 252.644,408.326 245.417,408.326 L 233.81,408.326 L 233.81,377.389 Z" marker-start="none" marker-end="none"/>
       <path d="M 318.13,342.617 L 291.99,407.367 L 291.606,407.367 C 291.861,403.401 291.989,399.341 291.99,395.184 L 291.99,342.617 L 287.289,342.617 L 287.289,412.738 L 294.868,412.738 L 319.712,351.059 L 320,351.059 L 344.845,412.738 L 352.231,412.738 L 352.231,342.617 L 347.291,342.617 L 347.291,395.759 C 347.291,399.469 347.483,403.307 347.867,407.271 L 347.482,407.271 L 321.247,342.617 L 318.13,342.617 Z" marker-start="none" marker-end="none"/>
       <path d="M 423.599,412.738 L 423.599,367.366 C 423.599,359.309 421.266,353.01 416.597,348.468 C 411.929,343.928 405.421,341.658 397.076,341.658 C 388.955,341.658 382.615,343.936 378.058,348.493 C 373.501,353.049 371.224,359.404 371.224,367.557 L 371.224,412.738 L 376.165,412.738 L 376.165,367.366 C 376.165,360.618 378.035,355.366 381.776,351.61 C 385.518,347.853 390.81,345.974 397.652,345.974 C 404.335,345.974 409.514,347.822 413.191,351.513 C 416.868,355.208 418.707,360.332 418.707,366.886 L 418.707,412.738 L 423.599,412.738 Z" marker-start="none" marker-end="none"/>
       <path d="M 442.688,342.617 L 442.688,412.738 L 447.58,412.738 L 447.58,347.221 L 481.01,347.221 L 481.01,342.617 L 442.688,342.617 Z" marker-start="none" marker-end="none"/>
       <path d="M 493.097,342.617 L 493.097,412.738 L 497.989,412.738 L 497.989,342.617 L 493.097,342.617 Z" marker-start="none" marker-end="none"/>
       <path d="M 556.168,342.617 L 517.846,342.617 L 517.846,412.738 L 556.168,412.738 L 556.168,408.23 L 522.738,408.23 L 522.738,381.706 L 554.298,381.706 L 554.298,377.198 L 522.738,377.198 L 522.738,347.126 L 556.168,347.126 L 556.168,342.617 Z" marker-start="none" marker-end="none"/>
       <path d="M 576.937,373.17 L 576.937,342.617 L 572.045,342.617 L 572.045,412.738 L 588.737,412.738 C 597.434,412.739 603.861,411.132 608.018,407.918 C 612.175,404.705 614.253,399.869 614.253,393.409 C 614.253,388.709 613.014,384.744 610.535,381.515 C 608.058,378.286 604.292,375.968 599.24,374.56 L 618.282,342.617 L 612.43,342.617 L 594.348,373.17 L 576.937,373.17 Z M 576.937,377.389 L 590.319,377.389 C 596.235,377.389 600.823,378.709 604.085,381.347 C 607.346,383.984 608.976,387.877 608.977,393.025 C 608.976,398.365 607.377,402.251 604.18,404.68 C 600.983,407.11 595.771,408.326 588.544,408.326 L 576.937,408.326 L 576.937,377.389 Z" marker-start="none" marker-end="none"/>
       <path d="M 668.738,342.617 L 630.416,342.617 L 630.416,412.738 L 668.738,412.738 L 668.738,408.23 L 635.308,408.23 L 635.308,381.706 L 666.868,381.706 L 666.868,377.198 L 635.308,377.198 L 635.308,347.126 L 668.738,347.126 L 668.738,342.617 Z" marker-start="none" marker-end="none"/>
       <path d="M 735.599,342.617 L 730.659,342.617 L 689.124,404.873 L 688.741,404.873 C 689.124,397.454 689.315,391.858 689.316,388.085 L 689.316,342.617 L 684.615,342.617 L 684.615,412.738 L 689.507,412.738 L 730.995,350.579 L 731.283,350.579 C 730.995,356.333 730.852,361.801 730.852,366.981 L 730.852,412.738 L 735.599,412.738 L 735.599,342.617 Z" marker-start="none" marker-end="none"/>
      </g>
     </g>
    </g>
   </g>
  </g>
 </g>
</svg>
