<?xml version="1.0" encoding="UTF-8"?>
<svg width="194px" height="34px" viewBox="0 0 194 34" version="1.1" xmlns="http://www.w3.org/2000/svg" xmlns:xlink="http://www.w3.org/1999/xlink">
    <!-- Generator: Sketch 47.1 (45422) - http://www.bohemiancoding.com/sketch -->
    <title>Logo</title>
    <desc>Created with Sketch.</desc>
    <defs></defs>
    <g id="Symbols" stroke="none" stroke-width="1" fill="none" fill-rule="evenodd">
        <g id="Headerbar" transform="translate(-152.000000, -28.000000)">
            <g id="Navbar">
                <g id="Logo" transform="translate(152.000000, 28.000000)">
                    <path d="M66,8.62878642 L66,27 L69.904981,27 L69.904981,16.7745614 C69.8941997,13.6809613 71.3388917,12.0440742 74.152088,11.9828003 L74.3519011,11.9828003 C74.9384029,11.9828003 75.4156544,12.0688755 75.7764681,12.2519676 L76,8.32241717 C75.599655,8.11014704 75.1173722,8 74.5502767,8 C73.4994609,8 72.5888018,8.32460552 71.8003306,8.97454601 C71.1433911,9.50923331 70.5619205,10.2649441 70.0552002,11.248973 C70.0386689,11.2803394 70.0012938,11.2993051 69.9667936,11.2890928 C69.930856,11.2803394 69.904981,11.248973 69.904981,11.211771 L69.904981,8.04376704 L66,8.62878642 Z" id="Fill-1" fill="#DE0367"></path>
                    <path d="M78,0.581684982 L78,26.8586081 L81.9366229,26.8586081 L81.9366229,21.8520147 L81.9576279,21.7985348 L84.5412404,18.8454212 C84.5578995,18.829304 84.5796288,18.8190476 84.6042553,18.8190476 L84.6086012,18.8190476 C84.6332277,18.8205128 84.6564056,18.8351648 84.6694432,18.8564103 L88.495971,24.7956044 C89.4933454,26.2725275 90.7507469,26.9970696 92.2891806,27 C92.8027162,27 93.3444998,26.9003663 93.9224989,26.7025641 L93.9224989,23.0153846 C93.7291082,23.0688645 93.4625622,23.0827839 93.2836578,23.0827839 C92.5564509,23.0835165 91.9263015,22.6820513 91.4047986,21.9091575 L89.3253056,18.8527473 C88.7393391,18.0197802 88.0910819,17.0336996 87.3732911,15.8952381 C87.3559077,15.8644689 87.3580806,15.8249084 87.3819828,15.7992674 L89.3412404,13.5472527 L94,7.95384615 L89.4404708,7.95384615 L82.077139,16.5699634 C82.0554097,16.5948718 82.0206428,16.6043956 81.9894975,16.592674 C81.9576279,16.5809524 81.9366229,16.5501832 81.9366229,16.5172161 L81.9366229,0 L78,0.581684982 Z" id="Fill-3" fill="#DE0367"></path>
                    <path d="M128,27 L128,15.1537961 C127.999296,13.0288774 127.372417,11.3021993 126.117956,9.95196022 C124.925479,8.64968445 123.480137,8.00145343 121.756574,8 C119.777329,8.00145343 118.167872,8.76450564 116.915524,10.3007841 C116.895098,10.3283993 116.859175,10.3363932 116.828184,10.324039 C116.799305,10.3131383 116.778879,10.2833429 116.778879,10.2499139 L116.778879,8.19039969 L113,8.76450564 L113,27 L116.778879,27 L116.778879,15.6835724 C116.77747,14.3515012 117.137397,13.2825014 117.862181,12.4874737 C118.543295,11.7447696 119.383593,11.366877 120.370398,11.3690572 C121.396647,11.366877 122.274981,11.7440428 122.974408,12.4874737 C123.719619,13.2795946 124.092224,14.3515012 124.092224,15.6835724 L124.092224,27 L128,27 Z" id="Fill-5" fill="#DE0367"></path>
                    <path d="M147,27 L147,15.1537961 C147,13.0288774 146.371654,11.3021993 145.118484,9.95196022 C143.926599,8.64968445 142.481121,8.00145343 140.758101,8 C138.780079,8.00218015 137.174697,8.76450564 135.916596,10.3022375 C135.897577,10.3283993 135.862356,10.3363932 135.832065,10.324039 C135.801071,10.3131383 135.781347,10.2833429 135.781347,10.2499139 L135.781347,8.19039969 L132,8.76450564 L132,27 L135.781347,27 L135.781347,15.6835724 C135.781347,14.3515012 136.139899,13.2825014 136.863342,12.4874737 C137.543815,11.7447696 138.385602,11.366877 139.372499,11.3690572 C140.398845,11.366877 141.275852,11.7440428 141.973232,12.4860203 C142.72133,13.2825014 143.09397,14.3515012 143.092561,15.6835724 L143.092561,27 L147,27 Z" id="Fill-7" fill="#DE0367"></path>
                    <polygon id="Fill-9" fill="#DE0367" points="156 26 156 8.0200143 152 8 152 26"></polygon>
                    <path d="M175,27 L175,15.1537961 C174.997218,13.0296041 174.369871,11.3021993 173.117262,9.95196022 C171.925859,8.64968445 170.478509,8.00145343 168.757129,8 C166.774238,8.00145343 165.172486,8.76450564 163.914314,10.3022375 C163.894144,10.3283993 163.859368,10.3363932 163.830853,10.324039 C163.800946,10.3131383 163.779385,10.2833429 163.779385,10.2499139 L163.779385,8.19039969 L160,8.76523236 L160,27 L163.779385,27 L163.779385,15.6835724 C163.779385,14.3515012 164.137571,13.2825014 164.864376,12.4874737 C165.543886,11.7440428 166.383363,11.366877 167.368897,11.3690572 L167.374461,11.3690572 C168.401725,11.3690572 169.271804,11.7447696 169.970789,12.4860203 C170.716372,13.2795946 171.090555,14.3515012 171.089164,15.6835724 L171.089164,27 L175,27 Z" id="Fill-11" fill="#DE0367"></path>
                    <path d="M189.136094,22.2266037 C188.435686,22.9327219 187.59617,23.2882799 186.634239,23.2882799 L186.62937,23.2882799 C185.623621,23.2889938 184.750719,22.9362917 184.030836,22.2266037 C183.282435,21.4740773 182.90754,20.5116432 182.910322,19.3628625 L182.910322,15.3067882 C182.90754,14.1115993 183.282435,13.1384556 184.030836,12.4066344 C184.732635,11.7454965 185.60345,11.4134996 186.62937,11.4149275 C187.616341,11.4134996 188.452379,11.7462105 189.136094,12.4094903 C189.858759,13.1405975 190.221135,14.1123133 190.219744,15.3067882 L190.219744,19.3628625 C190.221135,20.5102153 189.858759,21.4719354 189.136094,22.2266037 M186.994528,34 C188.618613,34 190.586293,33.3431459 191.864694,32.0622803 C193.287072,30.6678932 194,28.8315576 194,26.5368519 L194,8.08424868 L190.219744,8.71682777 L190.219744,10.2104569 C190.219744,10.2425857 190.200269,10.2725725 190.171056,10.283996 C190.140453,10.2954196 190.107762,10.286138 190.088287,10.260435 C188.830752,8.75181239 187.222665,8.00285589 185.243161,8 C183.52031,8.00285589 182.072893,8.62829525 180.879347,9.88488576 C179.624594,11.1893124 179.001391,12.8164543 179,14.7863027 L179,20.0197166 C179.001391,21.9924209 179.624594,23.6074253 180.879347,24.8875769 C182.072893,26.1220343 183.52031,26.737478 185.243161,26.737478 C187.268571,26.7346221 188.872484,26.0085127 190.088287,24.5462983 C190.107762,24.5205953 190.140453,24.5105997 190.171056,24.5220233 C190.200269,24.5341608 190.219744,24.5641476 190.219744,24.5962764 L190.219744,27.0594793 C190.221135,28.1918388 189.929704,29.0586006 189.334323,29.6369178 C188.739636,30.215949 187.855606,30.497254 186.694751,30.497254 C184.684642,30.4993959 182.915191,29.7768563 181.401697,28.3339192 L180.972549,32.627746 C182.666188,33.5309205 184.673514,34 186.994528,34" id="Fill-13" fill="#DE0367"></path>
                    <polygon id="Fill-16" fill="#DE0367" points="24 26 28 26 28 15 24 15"></polygon>
                    <polygon id="Fill-18" fill="#DE0367" points="24 11 28 11 28 0 24 0"></polygon>
                    <polygon id="Fill-19" fill="#DE0367" points="40.5161201 0 40.5161201 10.7609566 30.9200882 10.7609566 29 14.974494 40.5161201 14.974494 40.5161201 26 45 26 45 0"></polygon>
                    <path d="M7.07206889,26 C3.16439613,25.9985732 0.00141173149,22.7868295 0,18.8217314 L0,7.17684182 C0.00141173149,3.21317053 3.16439613,0.00214021128 7.07206889,0 L20,0 L20,4.46305392 L7.07206889,4.46305392 C5.59610362,4.46448072 4.39824945,5.68012073 4.39824945,7.17684182 L4.39824945,18.8217314 C4.39824945,20.3205927 5.59610362,21.5333791 7.07206889,21.5362327 L20,21.5362327 L20,26 L7.07206889,26 Z" id="Fill-20" fill="#223669"></path>
                    <polygon id="Fill-21" fill="#223669" points="7 11 7 15 17.0668344 15 19 11"></polygon>
                    <path d="M51.9848184,19.4792118 C52.0146141,20.6183316 52.3898978,21.6355318 53.1922531,22.4442419 C53.9492054,23.2038957 54.8742906,23.5884117 55.944807,23.5869689 C57.2260216,23.5869689 58.4547389,23.3157155 59.6252838,22.7724874 C60.6099603,22.3057296 61.5137628,21.6593386 62.3381101,20.8333143 L62.2139614,25.0117705 C62.1983541,25.0218704 62.1791998,25.0362987 62.1529512,25.0514485 L61.327185,25.5751984 C60.8944381,25.8529445 60.4496311,26.0708129 59.9956016,26.2338535 C59.4060726,26.4668717 58.7640465,26.6522763 58.0659762,26.79151 C57.2614926,26.929301 56.3782633,27 55.4177072,27 C53.310017,27 51.5598751,26.2389034 50.1488365,24.7131032 C48.7158059,23.1425751 48,21.1002392 48,18.5702244 L48,16.537267 C48,14.0548658 48.7803632,12.0154156 50.3446368,10.3936667 C51.8656356,8.79500323 53.8016459,8 56.1732406,8 C58.153235,8 59.7770999,8.57929908 61.0554767,9.73140449 C62.3522985,10.8849527 63,12.3754034 63,14.2251206 L63,14.3318905 C62.9929058,17.5097392 61.0568956,19.0730531 57.0614359,19.0853172 L53.094353,19.0853172 L53.094353,15.9839389 L56.6350738,15.9839389 C57.4544552,15.9839389 58.0837117,15.8122413 58.5100738,15.4508106 C58.9364359,15.0879371 59.1471339,14.5432661 59.1457151,13.8391616 C59.1485528,13.0860007 58.8959989,12.5030945 58.390891,12.1207427 C57.8879115,11.736948 57.1472758,11.5529863 56.1732406,11.5529863 C54.7558173,11.5515435 53.6633087,12.0190227 52.9240919,12.950374 C52.2962543,13.7114706 52.0273837,14.7207351 51.9848184,15.9053043 C51.9848184,15.9053043 51.8755675,17.4238903 51.9848184,19.4792118" id="Fill-22" fill="#DE0367"></path>
                    <path d="M98.9858602,19.4787759 C99.0170718,20.6164098 99.390192,21.635014 100.19389,22.4429721 C100.95148,23.2033184 101.87364,23.5863771 102.946184,23.5856557 C104.227277,23.5856557 105.453041,23.315134 106.627731,22.7719265 C107.610186,22.304465 108.516031,21.6580986 109.336754,20.8328271 L109.213326,25.0111246 C109.199849,25.0212241 109.180696,25.0349305 109.153741,25.0500797 L108.330181,25.5745311 C107.895347,25.8522667 107.45271,26.0708482 106.996595,26.2331612 C106.40925,26.4647278 105.765157,26.6515681 105.066443,26.7900752 C104.262745,26.9285823 103.379599,27 102.418424,27 C100.310934,26.9992786 98.5616665,26.2382109 97.150052,24.7117473 C95.7164476,23.1412788 95.0007094,21.0997418 95,18.5691017 L95,16.5369428 C95.0007094,14.0539145 95.7817081,12.0138203 97.3458337,10.3935758 C98.86527,8.79425165 100.801806,8.00072139 103.175305,8 C105.154403,8.00072139 106.778114,8.5785557 108.054242,9.73061736 C109.35236,10.8841218 109.998581,12.3752373 110,14.2241628 L110,14.3309287 C109.993616,17.5093781 108.057789,19.0733541 104.061288,19.0856177 L100.095999,19.0856177 L100.095999,15.9836358 L103.635676,15.9836358 C104.457108,15.9836358 105.084177,15.8119447 105.50908,15.4505278 C105.936111,15.0869466 106.148917,14.5430177 106.14608,13.8382185 C106.148917,13.0858076 105.894968,12.5029235 105.390618,12.1205862 C104.889104,11.7360847 104.148539,11.55213 103.175305,11.55213 C101.755178,11.5514086 100.664192,12.0181487 99.9243356,12.950186 C99.297976,13.7112537 99.0270027,14.7197585 98.9858602,15.9035614 C98.9858602,15.9035614 98.877329,17.4235325 98.9858602,19.4787759" id="Fill-23" fill="#DE0367"></path>
                    <path d="M157,3.47998221 C157,1.85112693 156.212776,1.05931198 154.57235,1 L154.391663,1 C152.773729,1.0118624 152,1.85260973 152,3.47998221 C152,5.18965006 152.773729,5.9873962 154.391663,6 L154.677313,6 C156.245014,5.93920522 157,5.18965006 157,3.47998221" id="Fill-24" fill="#DE0768"></path>
                </g>
            </g>
        </g>
    </g>
</svg>