<svg id="Layer_1" data-name="Layer 1" xmlns="http://www.w3.org/2000/svg" viewBox="0 0 1080 1080"><defs><style>.cls-1{fill:#1d336a;}.cls-2{fill:#f1cc49;}.cls-3{fill:#fff;}.cls-4{fill:#5fa7f3;}.cls-5{fill:#6ba6f1;}</style></defs><ellipse class="cls-1" cx="548.72" cy="528.21" rx="178.85" ry="178.67"/><path class="cls-2" d="M679.42,587.31a2.68,2.68,0,0,0-2.58-2.68H664.42l-4.16-12.49h0a2.68,2.68,0,0,0-5.17.2h0L651,584.62H638.7a2.68,2.68,0,0,0-1.75,4.72v0l10.45,8-3.89,12.44a2.63,2.63,0,0,0-.26,1.12,2.69,2.69,0,0,0,2.7,2.69,2.65,2.65,0,0,0,1.61-.55h0l10.14-7.77,9.79,7.51a2.69,2.69,0,0,0,4.6-1.89,2.59,2.59,0,0,0-.17-.92h0L668,597.42l10.3-7.95h0A2.67,2.67,0,0,0,679.42,587.31Z"/><path class="cls-2" d="M696.84,522.88a2.68,2.68,0,0,0-2.57-2.68H681.85l-4.17-12.49h0a2.68,2.68,0,0,0-5.17.2h0l-4.1,12.29H656.12a2.69,2.69,0,0,0-2.69,2.69,2.64,2.64,0,0,0,1,2v0l10.45,8-3.89,12.44a2.63,2.63,0,0,0-.25,1.12,2.68,2.68,0,0,0,4.31,2.14h0l10.15-7.77,9.78,7.51a2.69,2.69,0,0,0,4.61-1.89,2.6,2.6,0,0,0-.18-.92h0L685.44,533l10.3-8h0A2.66,2.66,0,0,0,696.84,522.88Z"/><path class="cls-2" d="M679.42,460.38a2.68,2.68,0,0,0-2.58-2.68H664.42l-4.16-12.49h0a2.68,2.68,0,0,0-5.17.2h0L651,457.69H638.7A2.68,2.68,0,0,0,637,462.4v0l10.45,8-3.89,12.44a2.63,2.63,0,0,0-.26,1.12,2.69,2.69,0,0,0,2.7,2.69,2.65,2.65,0,0,0,1.61-.55h0l10.14-7.77,9.79,7.51a2.65,2.65,0,0,0,1.91.8,2.68,2.68,0,0,0,2.69-2.69,2.59,2.59,0,0,0-.17-.92h0L668,470.5l10.3-8h0A2.67,2.67,0,0,0,679.42,460.38Z"/><path class="cls-2" d="M633,414a2.68,2.68,0,0,0-2.58-2.68H618l-4.17-12.49h0a2.68,2.68,0,0,0-5.17.2h0l-4.1,12.29H592.27a2.68,2.68,0,0,0-1.75,4.72v0L601,424l-3.89,12.44a2.63,2.63,0,0,0-.25,1.12,2.68,2.68,0,0,0,2.69,2.69,2.65,2.65,0,0,0,1.61-.55h0L611.29,432l9.79,7.51a2.69,2.69,0,0,0,4.6-1.89,2.59,2.59,0,0,0-.17-.92h0l-3.94-12.59,10.3-7.95h0A2.67,2.67,0,0,0,633,414Z"/><path class="cls-2" d="M569.71,397.36a2.68,2.68,0,0,0-2.57-2.67v0H554.72l-4.17-12.48h0a2.68,2.68,0,0,0-5.17.19h0l-4.1,12.29H529a2.68,2.68,0,0,0-1.74,4.72h0l10.45,8-3.89,12.44a2.63,2.63,0,0,0-.25,1.12,2.68,2.68,0,0,0,4.31,2.14h0L548,415.37l9.78,7.51a2.69,2.69,0,0,0,4.61-1.89,2.6,2.6,0,0,0-.18-.92h0l-3.94-12.58,10.3-8h0A2.69,2.69,0,0,0,569.71,397.36Z"/><path class="cls-2" d="M505.93,414.14a2.68,2.68,0,0,0-2.58-2.67v0H490.93L486.77,399h0a2.68,2.68,0,0,0-5.17.19h0l-4.1,12.29H465.2a2.68,2.68,0,0,0-1.74,4.72v0l10.45,8L470,436.65a2.74,2.74,0,0,0-.25,1.12,2.68,2.68,0,0,0,4.31,2.13h0l10.14-7.77,9.79,7.51a2.63,2.63,0,0,0,1.91.8,2.68,2.68,0,0,0,2.69-2.68,2.78,2.78,0,0,0-.17-.92h0l-3.94-12.58,10.29-7.95h0A2.66,2.66,0,0,0,505.93,414.14Z"/><path class="cls-2" d="M460.78,460.54a2.68,2.68,0,0,0-2.58-2.68H445.78l-4.16-12.49h0a2.68,2.68,0,0,0-5.17.2h0l-4.1,12.29H420.06a2.68,2.68,0,0,0-1.75,4.72v0l10.45,8L424.87,483a2.63,2.63,0,0,0-.26,1.12,2.69,2.69,0,0,0,2.7,2.69,2.65,2.65,0,0,0,1.61-.55h0l10.14-7.77,9.79,7.51a2.69,2.69,0,0,0,4.6-1.89,2.59,2.59,0,0,0-.17-.92h0l-3.94-12.59,10.3-7.95h0A2.67,2.67,0,0,0,460.78,460.54Z"/><path class="cls-2" d="M444,523a2.68,2.68,0,0,0-2.57-2.67v0H429l-4.17-12.48h0a2.68,2.68,0,0,0-5.17.19h0l-4.1,12.29H403.29a2.68,2.68,0,0,0-1.74,4.72h0l10.45,8-3.89,12.44a2.63,2.63,0,0,0-.25,1.12,2.69,2.69,0,0,0,2.69,2.69,2.63,2.63,0,0,0,1.62-.56v0L422.32,541l9.78,7.51a2.69,2.69,0,0,0,4.61-1.89,2.55,2.55,0,0,0-.18-.92h0l-3.94-12.58,10.3-7.95h0A2.71,2.71,0,0,0,444,523Z"/><path class="cls-2" d="M460.78,587.48a2.68,2.68,0,0,0-2.58-2.68H445.78l-4.16-12.49h0a2.68,2.68,0,0,0-5.17.2h0l-4.1,12.29H420.06a2.68,2.68,0,0,0-1.75,4.72h0l10.45,8L424.87,610a2.63,2.63,0,0,0-.26,1.12,2.69,2.69,0,0,0,2.7,2.69,2.65,2.65,0,0,0,1.61-.55h0l10.14-7.77,9.79,7.51a2.69,2.69,0,0,0,4.6-1.89,2.59,2.59,0,0,0-.17-.92h0l-3.94-12.59,10.3-8h0A2.67,2.67,0,0,0,460.78,587.48Z"/><path class="cls-2" d="M506.59,633.22a2.7,2.7,0,0,0-2.58-2.68H491.59L487.42,618h0a2.68,2.68,0,0,0-5.17.2h0l-4.1,12.29H465.86a2.7,2.7,0,0,0-2.69,2.69,2.64,2.64,0,0,0,.95,2v0l10.45,8-3.89,12.44a2.83,2.83,0,0,0-.25,1.13,2.68,2.68,0,0,0,4.31,2.13h0l10.14-7.77,9.78,7.51a2.69,2.69,0,0,0,4.61-1.88,2.73,2.73,0,0,0-.17-.92h0l-3.94-12.58,10.29-8h0A2.67,2.67,0,0,0,506.59,633.22Z"/><path class="cls-2" d="M570.42,649.8a2.68,2.68,0,0,0-2.58-2.67v0H555.43l-4.17-12.48h0a2.67,2.67,0,0,0-5.16.19h0L542,647.11H529.7a2.68,2.68,0,0,0-1.74,4.72h0l10.45,8-3.89,12.44a2.59,2.59,0,0,0-.25,1.12,2.68,2.68,0,0,0,4.31,2.13h0l10.15-7.77,9.78,7.51a2.65,2.65,0,0,0,1.91.8,2.68,2.68,0,0,0,2.69-2.68,2.55,2.55,0,0,0-.17-.92h0L559,659.92l10.3-7.95h0A2.66,2.66,0,0,0,570.42,649.8Z"/><path class="cls-2" d="M633,633.06a2.68,2.68,0,0,0-2.58-2.67v0H618l-4.17-12.48h0a2.68,2.68,0,0,0-5.17.19h0l-4.1,12.29H592.27a2.68,2.68,0,0,0-1.75,4.72h0l10.45,8-3.89,12.44a2.63,2.63,0,0,0-.25,1.12,2.69,2.69,0,0,0,2.69,2.69,2.65,2.65,0,0,0,1.61-.55h0l10.14-7.77,9.79,7.51a2.69,2.69,0,0,0,4.6-1.89,2.59,2.59,0,0,0-.17-.92h0l-3.94-12.59,10.3-7.95h0A2.67,2.67,0,0,0,633,633.06Z"/><path class="cls-3" d="M575.17,516.44H575v-14A25.47,25.47,0,0,0,549.56,477h0a25.47,25.47,0,0,0-25.49,25.46v14a10.27,10.27,0,0,0-10,10.27V570.9a10.29,10.29,0,0,0,10.29,10.28h50.85a10.29,10.29,0,0,0,10.29-10.28V526.72A10.29,10.29,0,0,0,575.17,516.44Zm-20.6,36.23v8.16a4.83,4.83,0,0,1-9.66,0v-8.16a10.71,10.71,0,1,1,9.66,0Zm9.53-36.23H535V501.38a14.54,14.54,0,0,1,14.55-14.53h0a14.54,14.54,0,0,1,14.54,14.53Z"/><path class="cls-4" d="M518.74,878A349.65,349.65,0,0,1,229.92,668.25,7.91,7.91,0,0,1,244.45,662,333.85,333.85,0,0,0,520.21,862.32a7.9,7.9,0,0,1-.72,15.76Z"/><path class="cls-4" d="M586.43,877.79a7.86,7.86,0,0,1-7.85-7.1,7.89,7.89,0,0,1,7-8.66A333.8,333.8,0,0,0,771.74,278.82a7.89,7.89,0,0,1-.74-11.14,7.93,7.93,0,0,1,11.17-.73,349.65,349.65,0,0,1-194.93,610.8A7.32,7.32,0,0,1,586.43,877.79Z"/><path class="cls-4" d="M551.46,791.84c-144.58,0-262.2-117.51-262.2-261.94q0-5.67.24-11.28a7.91,7.91,0,0,1,15.8.66c-.15,3.53-.22,7.06-.22,10.62C305.08,665.62,415.6,776,551.46,776S797.85,665.62,797.85,529.9a246.08,246.08,0,0,0-31.21-120,7.91,7.91,0,0,1,13.81-7.71A261.93,261.93,0,0,1,813.66,529.9C813.66,674.33,696,791.84,551.46,791.84Z"/><path class="cls-4" d="M551.46,750.61a218.86,218.86,0,0,1-136.52-47.16A7.9,7.9,0,0,1,424.72,691a205.3,205.3,0,0,0,285-30.79,7.91,7.91,0,0,1,12.2,10.06A220.46,220.46,0,0,1,551.46,750.61Z"/><path class="cls-4" d="M725.68,777.52a301.41,301.41,0,0,1-225.61,51,7.9,7.9,0,0,1-6.46-9.12,7.89,7.89,0,0,1,9.12-6.45A287.27,287.27,0,0,0,836.39,563.38a7.9,7.9,0,0,1,15.7,1.84A303.25,303.25,0,0,1,725.68,777.52Z"/><path class="cls-4" d="M450.64,812.15a7.89,7.89,0,0,1-7.37.93A302.79,302.79,0,0,1,335.09,317.49a7.82,7.82,0,0,1,1.08-.93,7.9,7.9,0,0,1,10.17,12A287,287,0,0,0,448.88,798.32a7.89,7.89,0,0,1,1.76,13.83Z"/><path class="cls-4" d="M846.73,487.4a7.64,7.64,0,0,1-3.24,1.33,7.91,7.91,0,0,1-9.1-6.48A287.48,287.48,0,0,0,409.92,280a7.9,7.9,0,0,1-8.44-13.33,7.57,7.57,0,0,1,.67-.42A303.22,303.22,0,0,1,850,479.63,7.91,7.91,0,0,1,846.73,487.4Z"/><path class="cls-4" d="M374.82,656.79a7.92,7.92,0,0,1-6.56-3.48,220.63,220.63,0,0,1,42.67-293.72A7.9,7.9,0,0,1,421,371.77a204.85,204.85,0,0,0-39.63,272.7,7.89,7.89,0,0,1-2.12,11A7.86,7.86,0,0,1,374.82,656.79Z"/><path class="cls-4" d="M748.24,619.44a7.65,7.65,0,0,1-3-.61A7.88,7.88,0,0,1,741,608.51a203.63,203.63,0,0,0,15.63-78.61c0-113-92-204.92-205.12-204.92a204,204,0,0,0-81.55,16.83,7.76,7.76,0,0,1-3.14.66,7.9,7.9,0,0,1-3.16-15.15,219.75,219.75,0,0,1,87.85-18.14c121.82,0,220.93,99,220.93,220.72a219.38,219.38,0,0,1-16.84,84.67A7.9,7.9,0,0,1,748.24,619.44Z"/><path class="cls-4" d="M209.36,537.8a7.91,7.91,0,0,1-7.9-7.9c0-192.8,157-349.65,350-349.65a350.94,350.94,0,0,1,165,41.23,7.9,7.9,0,0,1-3.74,14.86,7.77,7.77,0,0,1-3.73-.94,335.08,335.08,0,0,0-157.56-39.35c-184.27,0-334.19,149.76-334.19,333.85A7.91,7.91,0,0,1,209.36,537.8Z"/><path class="cls-4" d="M318.73,435.25a8,8,0,0,1-3.19-.67,7.9,7.9,0,0,1-4-10.42,262.39,262.39,0,0,1,425.35-79.48,7.9,7.9,0,0,1-11.17,11.17A246.59,246.59,0,0,0,326,430.55,7.93,7.93,0,0,1,318.73,435.25Z"/><ellipse class="cls-5" cx="747.14" cy="246.94" rx="7.59" ry="7.59"/><ellipse class="cls-5" cx="754.56" cy="376.6" rx="7.59" ry="7.59"/><ellipse class="cls-5" cx="847.27" cy="522.94" rx="7.59" ry="7.59"/><ellipse class="cls-5" cx="734.16" cy="639.64" rx="7.59" ry="7.59"/><ellipse class="cls-5" cx="554.3" cy="871.19" rx="7.59" ry="7.59"/><ellipse class="cls-5" cx="470.86" cy="813.76" rx="7.59" ry="7.59"/><ellipse class="cls-5" cx="394.84" cy="672.98" rx="7.59" ry="7.59"/><ellipse class="cls-5" cx="216.84" cy="602.59" rx="7.59" ry="7.59"/><ellipse class="cls-5" cx="302.13" cy="471.07" rx="7.59" ry="7.59"/><ellipse class="cls-5" cx="439.34" cy="346.96" rx="7.59" ry="7.59"/><ellipse class="cls-5" cx="368.88" cy="293.25" rx="7.59" ry="7.59"/></svg>